<?xml version="1.0" standalone="no"?>
<!DOCTYPE svg PUBLIC "-//W3C//DTD SVG 20010904//EN"
 "http://www.w3.org/TR/2001/REC-SVG-20010904/DTD/svg10.dtd">
<svg version="1.0" xmlns="http://www.w3.org/2000/svg"
 width="40" height="40" viewBox="0 0 460.000000 460.000000"
 preserveAspectRatio="xMidYMid meet">

<g transform="translate(0.000000,460.000000) scale(0.100000,-0.100000)"
fill="#ffffff" stroke="none">
<path d="M2393 3749 c-17 -17 -16 -48 4 -130 15 -65 15 -76 0 -161 -9 -50 -19
-94 -24 -98 -4 -5 -57 -13 -118 -20 -360 -37 -765 -198 -1041 -411 -79 -61
-152 -98 -210 -106 -33 -4 -50 -13 -62 -31 -15 -23 -15 -27 4 -60 31 -58 65
-76 148 -80 67 -4 76 -2 92 18 129 154 288 264 517 356 228 91 617 176 617
134 0 -21 -316 -1138 -325 -1148 -1 -2 -38 23 -81 54 -99 70 -166 104 -274
139 -248 78 -462 18 -551 -157 -85 -167 -5 -374 193 -494 110 -67 344 -134
466 -134 28 0 53 -4 56 -8 2 -4 -13 -53 -35 -107 -55 -140 -89 -250 -89 -290
0 -50 37 -141 67 -165 30 -24 54 -25 92 -5 36 18 47 61 67 259 8 83 23 187 32
231 l17 80 80 8 c44 4 126 18 183 31 l103 23 82 -96 c249 -293 519 -498 709
-537 189 -40 401 66 510 254 47 82 67 158 46 178 -13 13 -23 8 -82 -35 -98
-72 -159 -93 -287 -99 -225 -9 -407 73 -693 313 -52 44 -95 82 -95 85 0 3 39
23 87 45 138 63 285 166 397 279 181 181 272 359 306 595 30 215 -42 470 -175
618 -115 126 -322 227 -530 258 -25 4 -46 12 -46 17 0 5 14 42 32 81 44 98 46
186 6 239 -45 58 -167 106 -195 77z m267 -600 c41 -11 101 -34 135 -52 76 -40
181 -144 222 -222 121 -229 91 -547 -75 -800 -97 -146 -282 -300 -470 -388
l-84 -39 -47 44 c-90 86 -186 176 -219 204 l-34 30 57 194 c89 306 233 763
307 973 l31 88 51 -6 c28 -4 85 -15 126 -26z m-1070 -1060 c68 -15 196 -81
283 -146 92 -68 90 -46 20 -265 l-46 -148 -69 0 c-258 0 -461 92 -540 243 -45
88 -20 227 51 273 73 49 199 67 301 43z m630 -491 c0 -12 -219 -62 -229 -53
-4 5 12 71 41 170 l21 70 83 -90 c46 -49 84 -93 84 -97z"/>
</g>
</svg>
